# xmcd CD database file
#
# Track frame offsets:
#	150
#	16876
#	32105
#	47142
#	65953
#	82450
#	101043
#	117667
#	134530
#	150688
#	172012
#	187141
#	202231
#	218820
#	234852
#	254848
#	276016
#	292462
#	308667
#
# Disc length: 4309 seconds
#
# Revision: 2
# Processed by: cddbd v1.4b41PL1 Copyright (c) Steve Scherf et al.
# Submitted via: Feurio! 1.60 - http://www.feurio.com
#
DISCID=1110d313,3c10d313
DTITLE=Various Artist -  2001 - 1 Rendezvous der Stars
DYEAR=1900
DGENRE=
TTITLE0=LIONEL RICHIE - ANGEL
TTITLE1=BRITNEY SPEARS - STRONGER
TTITLE2=ANASTACIA - NOT THAT KIND
TTITLE3=MADONNA - DON´T TELL ME
TTITLE4=Debelah Morgan - Dance With Me
TTITLE5=BON JOVI - THANK YOU FOR LOVING ME (RADIO
TTITLE6=MARK KNOPFLER - WHAT IT IS
TTITLE7=VANESSA AMOROSI - ABSOLUTELY EVERYBODY
TTITLE8=JEANETTE - GO BACK
TTITLE9=DJ Bobo feat. Irene Cara - What A Feeling (U-Max Club Mix)
TTITLE10=SAMANTHA MUMBA - GOTTA TELL YOU
TTITLE11=Ronan Keating - If I Don't Tell You Now
TTITLE12=SASHA - OWNER OF MY HEART
TTITLE13=No Angels - Daylight In Your Eyes
TTITLE14=Sonique - Sky
TTITLE15=SPILLER - WHY DOES IT FEEL SO GOOD
TTITLE16=Band Ohne Namen - Nobody
TTITLE17=C.B. Green - Miracles
TTITLE18=REDNEX - HOLD ME (FOR A WHILE) (RADIO E
EXTD=
EXTT0=
EXTT1=
EXTT2=
EXTT3=
EXTT4=
EXTT5=
EXTT6=
EXTT7=
EXTT8=
EXTT9=
EXTT10=
EXTT11=
EXTT12=
EXTT13=
EXTT14=
EXTT15=
EXTT16=
EXTT17=
EXTT18=
PLAYORDER=
